#!OML:ASF H:\Terrain\Patient Classification 1\Takeo\Monday\TakeoMonday.ASF
:FULLY-SPECIFIED
:DEGREES
2398
root 10.123 17.7522 0.0762499 -7.18846 -3.59041 1.2305
lowerback 0.0225543 2.50851 2.19487
upperback -0.499555 3.36971 4.06827
thorax -0.644674 1.68584 2.92668
lowerneck -8.66841 6.6199 9.20295
upperneck -1.73701 7.77842 15.7125
head 0.617471 4.07852 3.83658
rclavicle 5.1684e-015 -1.90833e-014
rhumerus 81.845 43.4554 -45.0806
rradius 116.454
rwrist -87.7881
rhand -17.2147 10.8889
rfingers 7.12502
rthumb 9.02818 -18.8979
lclavicle 5.1684e-015 -1.90833e-014
lhumerus -35.9276 6.84799 92.1239
lradius 29.2214
lwrist 39.6578
lhand -22.9984 25.6996
lfingers 7.12502
lthumb 3.44467 55.6515
rfemur 8.07038 0.404693 17.6166
rtibia 17.0348
rfoot -15.6158 -17.9509
rtoes -2.22978
lfemur 6.34336 -2.11214 -22.8782
ltibia 18.7592
lfoot -14.6161 17.3191
ltoes -4.06438
2399
root 10.1238 17.7477 0.078907 -7.11966 -3.38072 1.40034
lowerback -0.123294 2.50324 2.11081
upperback -0.54871 3.35732 3.96673
thorax -0.61155 1.6799 2.8746
lowerneck -8.65182 6.60729 8.85488
upperneck -1.6193 7.78544 16.4711
head 0.610858 4.10532 4.17338
rclavicle -3.4191e-014 -9.54166e-015
rhumerus 82.3783 43.7254 -44.2111
rradius 116.921
rwrist -87.0787
rhand -16.3621 10.7754
rfingers 7.12502
rthumb 9.85084 -18.9742
lclavicle -3.4191e-014 -9.54166e-015
lhumerus -35.9966 6.80807 92.0328
lradius 29.0814
lwrist 39.5548
lhand -22.9058 26.291
lfingers 7.12502
lthumb 3.53407 56.2415
rfemur 8.04372 0.208933 17.3784
rtibia 16.9821
rfoot -15.4098 -17.9256
rtoes -2.01105
lfemur 6.26016 -2.05812 -23.0627
ltibia 18.7298
lfoot -14.2866 17.3069
ltoes -5.86301
2400
root 10.1187 17.7451 0.0840139 -7.15276 -3.27925 1.40845
lowerback -0.175013 2.51797 2.13739
upperback -0.464116 3.37069 3.98421
thorax -0.495711 1.68659 2.88266
lowerneck -9.22948 6.63022 8.12005
upperneck -1.10712 7.71704 17.3628
head 0.828083 4.15998 4.67583
rclavicle -4.45278e-014 3.18055e-015
rhumerus 83.0896 43.8572 -43.1423
rradius 117.52
rwrist -86.616
rhand -16.2182 10.838
rfingers 7.12502
rthumb 9.98969 -18.9049
lclavicle -4.45278e-014 3.18055e-015
lhumerus -35.704 6.83441 92.07
lradius 28.8389
lwrist 39.4742
lhand -23.1368 27.3076
lfingers 7.12502
lthumb 3.31103 57.2616
rfemur 8.15803 0.293345 17.3945
rtibia 16.9014
rfoot -15.425 -17.9757
rtoes -1.55439
lfemur 6.30501 -2.08379 -23.0584
ltibia 18.7243
lfoot -14.3301 17.2472
ltoes -5.44088
2401
root 10.1147 17.7492 0.0875225 -7.19007 -3.26101 1.28275
lowerback -0.109439 2.55365 2.34455
upperback -0.429199 3.41982 4.018
thorax -0.488347 1.71016 2.79958
lowerneck -9.40845 6.58332 8.53061
upperneck -0.793 7.52759 16.6776
head 1.01788 4.0883 4.36416
rclavicle 3.49861e-014 -9.54166e-015
rhumerus 83.866 44.0311 -42.138
rradius 117.894
rwrist -86.1215
rhand -15.3927 11.1139
rfingers 7.12502
rthumb 10.7859 -18.5892
lclavicle 3.49861e-014 -9.54166e-015
lhumerus -35.3996 6.85415 92.0578
lradius 28.5044
lwrist 39.2384
lhand -23.3464 27.9537
lfingers 7.12502
lthumb 3.10857 57.9108
rfemur 8.29134 0.401286 17.5671
rtibia 16.7893
rfoot -15.6419 -17.9905
rtoes -1.35993
lfemur 6.36714 -2.19708 -22.9103
ltibia 18.7513
lfoot -14.652 17.1614
ltoes -3.79939
2402
root 10.1186 17.7498 0.0873234 -7.14842 -3.16275 1.18918
lowerback -0.10916 2.54288 2.56944
upperback -0.447435 3.40604 3.98555
thorax -0.491722 1.70192 2.6404
lowerneck -9.03603 6.67316 7.74491
upperneck -1.19745 7.87141 18.0718
head 0.722305 4.23295 4.47376
rclavicle 2.56432e-014 3.02153e-014
rhumerus 84.5924 44.2942 -41.3062
rradius 118.195
rwrist -85.9411
rhand -14.3476 11.405
rfingers 7.12502
rthumb 11.7939 -18.243
lclavicle 2.56432e-014 3.02153e-014
lhumerus -35.2951 6.95334 91.9178
lradius 28.1813
lwrist 38.9655
lhand -23.3618 27.255
lfingers 7.12502
lthumb 3.0937 57.2123
rfemur 8.43324 0.170519 17.6133
rtibia 16.4914
rfoot -15.4856 -17.9391
rtoes -2.29414
lfemur 6.26624 -2.2717 -22.8298
ltibia 18.9143
lfoot -14.741 17.1633
ltoes -3.70207
2403
root 10.1218 17.7526 0.0887006 -7.08288 -3.1033 1.01854
lowerback -0.172858 2.50319 2.80353
upperback -0.463058 3.35043 4.03661
thorax -0.460288 1.67315 2.56558
lowerneck -9.32697 6.90544 7.46271
upperneck -0.771923 8.09127 18.7369
head 0.853862 4.40615 4.75033
rclavicle 3.16068e-014 -1.11319e-014
rhumerus 85.2534 44.7777 -40.5628
rradius 118.528
rwrist -85.8336
rhand -13.6316 11.3531
rfingers 7.12502
rthumb 12.4844 -18.254
lclavicle 3.16068e-014 -1.11319e-014
lhumerus -35.3456 7.32602 91.7646
lradius 27.9831
lwrist 38.7823
lhand -23.4061 26.0745
lfingers 7.12502
lthumb 3.05095 56.0324
rfemur 8.53432 0.0603159 17.78
rtibia 16.2134
rfoot -15.2542 -17.9757
rtoes -2.44278
lfemur 6.13583 -2.47716 -22.6667
ltibia 19.0814
lfoot -15.0168 17.0767
ltoes -2.42528
2404
root 10.1142 17.7593 0.0920067 -7.03481 -3.14804 0.948851
lowerback -0.151961 2.62169 2.87943
upperback -0.543881 3.51383 4.06517
thorax -0.556365 1.75403 2.54896
lowerneck -9.16071 6.80817 7.52382
upperneck -0.79773 7.98691 18.7098
head 0.828398 4.34498 4.72158
rclavicle 5.38706e-014 2.06736e-014
rhumerus 85.3811 45.0823 -39.9767
rradius 118.81
rwrist -85.5007
rhand -12.9524 11.1435
rfingers 7.12502
rthumb 13.1391 -18.4225
lclavicle 5.38706e-014 2.06736e-014
lhumerus -35.5577 7.45593 91.7132
lradius 27.958
lwrist 38.6054
lhand -23.4963 25.7203
lfingers 7.12502
lthumb 2.96383 55.6795
rfemur 8.52677 0.317702 17.9584
rtibia 16.1306
rfoot -15.2551 -18.1458
rtoes -1.23077
lfemur 6.07221 -2.5765 -22.5556
ltibia 19.1138
lfoot -15.2874 16.9674
ltoes -1.57339
2405
root 10.1058 17.7571 0.0931017 -7.00227 -3.14808 1.02527
lowerback -0.0761087 2.83784 2.90747
upperback -0.6828 3.81253 3.92081
thorax -0.736942 1.9014 2.37524
lowerneck -8.37848 6.50185 8.07767
upperneck -1.54827 7.77641 17.837
head 0.502517 4.12392 4.80357
rclavicle -1.96797e-014 -9.54166e-015
rhumerus 85.1921 45.091 -39.5391
rradius 118.977
rwrist -84.8527
rhand -12.2913 11.1635
rfingers 7.12502
rthumb 13.7763 -18.3604
lclavicle -1.96797e-014 -9.54166e-015
lhumerus -35.8515 7.25225 91.595
lradius 28.0182
lwrist 38.3422
lhand -23.3291 26.063
lfingers 7.12502
lthumb 3.12529 56.0198
rfemur 8.51268 0.424581 17.9419
rtibia 16.0795
rfoot -15.1921 -18.2752
rtoes -0.45112
lfemur 6.04886 -2.55234 -22.6341
ltibia 19.0831
lfoot -15.1161 17.1434
ltoes -3.01392
2406
root 10.1063 17.752 0.0935713 -7.06807 -3.0416 1.17785
lowerback 0.0425732 2.90544 2.8972
upperback -0.7534 3.91181 3.78365
thorax -0.868978 1.94949 2.23043
lowerneck -8.08139 6.47047 8.24528
upperneck -1.67092 7.79158 17.9383
head 0.409003 4.1087 4.79359
rclavicle -5.82439e-014 -1.11319e-014
rhumerus 85.5359 45.235 -38.815
rradius 119.102
rwrist -83.9502
rhand -11.4906 11.3392
rfingers 7.12502
rthumb 14.5478 -18.1307
lclavicle -5.82439e-014 -1.11319e-014
lhumerus -35.9071 7.33837 91.4062
lradius 27.9329
lwrist 38.134
lhand -22.989 26.8307
lfingers 7.12502
lthumb 3.45376 56.7824
rfemur 8.56898 0.254726 17.7301
rtibia 16.132
rfoot -15.1375 -18.2549
rtoes -0.755916
lfemur 6.1871 -2.65814 -22.8651
ltibia 18.9526
lfoot -14.8596 17.4057
ltoes -4.46935
2407
root 10.1077 17.7566 0.0998742 -7.18036 -2.95525 1.21861
lowerback 0.110648 2.88694 2.9326
upperback -0.715822 3.88903 3.76167
thorax -0.864195 1.93778 2.18579
lowerneck -8.30029 6.52807 8.54746
upperneck -1.31646 7.7372 17.8248
head 0.586429 4.12147 4.71838
rclavicle 5.10877e-014 6.36111e-015
rhumerus 86.2785 45.4569 -37.757
rradius 119.226
rwrist -82.6962
rhand -10.5058 11.9746
rfingers 7.12502
rthumb 15.4965 -17.4243
lclavicle 5.10877e-014 6.36111e-015
lhumerus -35.8129 7.69318 91.2433
lradius 27.7475
lwrist 37.9863
lhand -22.9025 26.9798
lfingers 7.12502
lthumb 3.53727 56.9302
rfemur 8.61733 0.113721 17.6319
rtibia 16.3456
rfoot -15.2674 -18.1408
rtoes -1.04369
lfemur 6.44596 -2.74284 -22.91
ltibia 18.7307
lfoot -15.046 17.1883
ltoes -3.95955
2408
root 10.1092 17.76 0.108051 -7.14739 -2.87984 1.29772
lowerback -0.0369706 2.89384 2.92553
upperback -0.630435 3.88569 3.7636
thorax -0.694271 1.93743 2.20273
lowerneck -8.4115 6.4069 8.83836
upperneck -1.36091 7.53391 17.4629
head 0.628226 4.01599 4.53094
rclavicle 1.80894e-014 0
rhumerus 87.1735 45.3864 -36.3454
rradius 119.319
rwrist -80.9087
rhand -9.91902 12.9981
rfingers 7.12502
rthumb 16.0616 -16.3562
lclavicle 1.80894e-014 0
lhumerus -35.6512 7.79586 91.3149
lradius 27.471
lwrist 37.9789
lhand -23.0644 26.2361
lfingers 7.12502
lthumb 3.38094 56.1891
rfemur 8.54608 -0.0276498 17.4862
rtibia 16.4896
rfoot -15.3933 -18.0117
rtoes -1.06194
lfemur 6.52282 -2.76339 -22.9808
ltibia 18.5717
lfoot -15.3053 16.8772
ltoes -3.18108
2409
root 10.1062 17.7541 0.113461 -7.13224 -2.8892 1.33292
lowerback -0.238161 2.8357 2.78843
upperback -0.341199 3.78373 3.94301
thorax -0.303768 1.89053 2.48418
lowerneck -9.0559 6.43585 7.86859
upperneck -1.3496 7.57667 18.6301
head 0.684611 4.08842 4.61693
rclavicle -1.21259e-014 3.18055e-015
rhumerus 88.6078 45.1391 -34.538
rradius 119.275
rwrist -79.0111
rhand -9.5115 13.2675
rfingers 7.12502
rthumb 16.454 -16.0547
lclavicle -1.21259e-014 3.18055e-015
lhumerus -35.0666 8.01669 91.605
lradius 27.1363
lwrist 38.1136
lhand -23.4657 25.8809
lfingers 7.12502
lthumb 2.99333 55.8396
rfemur 8.56246 0.0335981 17.468
rtibia 16.465
rfoot -15.3592 -18.1011
rtoes -1.36013
lfemur 6.53855 -2.6247 -23.0124
ltibia 18.5533
lfoot -15.2195 16.8644
ltoes -3.80721
2410
root 10.0946 17.7495 0.116932 -7.26981 -2.89431 1.16934
lowerback -0.0969867 2.88383 2.8725
upperback -0.423411 3.86007 3.98969
thorax -0.466841 1.92761 2.47485
lowerneck -8.92011 6.26651 7.05255
upperneck -1.16473 7.43057 19.8224
head 0.665377 4.05069 5.10352
rclavicle 8.01102e-014 5.08889e-014
rhumerus 88.8009 45.4755 -33.911
rradius 118.969
rwrist -77.0852
rhand -8.63078 13.0651
rfingers 7.12502
rthumb 17.3018 -16.1847
lclavicle 8.01102e-014 5.08889e-014
lhumerus -35.3745 7.82918 91.5812
lradius 27.135
lwrist 38.3523
lhand -23.9275 25.9835
lfingers 7.12502
lthumb 2.54734 55.9481
rfemur 8.73491 0.304366 17.7861
rtibia 16.4732
rfoot -15.4566 -18.3974
rtoes -1.62975
lfemur 6.67642 -2.49244 -22.783
ltibia 18.567
lfoot -14.9624 16.8864
ltoes -5.01173
